<?xml version="1.0" encoding="UTF-8"?>
<svg id="Layer_2" data-name="Layer 2" xmlns="http://www.w3.org/2000/svg" viewBox="0 0 1008.75 210.86">
  <defs>
    <style>
      .cls-1 {
        fill: #e63946;
      }
    </style>
  </defs>
  <g id="Layer_2-2" data-name="Layer 2">
    <g id="Logo_blanco" data-name="Logo blanco">
      <g>
        <path class="cls-1" d="M480.76,210.86l-33.8-.09V51.98l31.35-.06,1.07,14.43c7.65-10.64,18.97-16.28,32.09-17.01,20.02-1.11,38.48,9.21,47.21,27.67,9.38,19.83,9.49,43.41-.04,63.21-11.9,24.74-41.35,34.56-65.54,22.23-4.74-2.42-8.43-6.17-12.35-9.45v57.85h0ZM529.97,119.16c1.84-6.41,1.58-13.57.23-19.7-2.62-11.87-12.05-19.61-23.64-19.82-10.84-.2-20.68,6.12-24.39,17.37-2.31,7.03-2.39,15.4-.25,22.55,3.38,11.25,13.05,17.86,23.99,17.89,11.04.03,20.64-6.37,24.06-18.29h0Z"/>
        <path class="cls-1" d="M165.97,121.46l28.44,13.89c-15.95,32.94-58.01,40.76-87.26,24.08-17.1-9.75-26.71-27.81-27.61-47.25-1.69-36.43,24.29-63.7,61.89-62.84,36.48.83,58.54,30.52,56.21,67.33h-84.51c2.15,14.3,13.59,22.91,27.32,22.53,11.45-.31,20.98-5.79,25.52-17.74h0ZM163.99,97.21c-2.6-13.75-13.91-20.71-25.97-20.46-11.57.24-21.75,8.22-24.39,20.56l50.36-.09h0Z"/>
        <path class="cls-1" d="M293.46,121.62l28.39,13.62c-14.15,31.81-55.67,40.51-84.96,25.38-15.08-7.79-24.78-22.15-28.38-38.65-5.26-24.12,3.71-49.53,24.53-63.16,16.19-10.6,36.58-12.05,54.61-6.02,27.09,9.06,38.88,35.07,37.57,63.86l-84.55.02c1.78,13.59,13.09,22.79,26.72,22.53,11.48-.21,21.13-5.34,26.07-17.57h0ZM291.77,97.33c-2.84-14.32-16.35-22.67-30.27-20.08-10.57,1.97-18.11,9.31-20.15,20.07h50.42,0Z"/>
        <path class="cls-1" d="M826.09,121.39l28.67,13.81c-13.14,27.13-41.84,36.96-70.21,30.93-21.49-4.57-37.47-20.27-42.62-41.6-5-20.73-.17-42.64,14.72-58.11,11.76-12.22,27.87-17.39,44.75-17.05,36.69.75,59.04,30.25,56.37,67.31l-84.12-.04c1.55,13.68,12.98,22.8,26.75,22.51,11.38-.25,21.61-5.32,25.68-17.76h.01ZM824.54,97.23c-2.9-13.62-13.91-20.63-25.64-20.44-11.84.19-22.3,8.11-24.76,20.49,0,0,50.4-.05,50.4-.05Z"/>
        <polygon class="cls-1" points="742.99 164.56 704.33 164.91 682.29 130.4 660.4 164.77 622.12 164.76 660.96 107.33 623.49 52.11 661.72 51.81 682.58 85.16 703.28 51.99 741.54 52.05 703.76 107.53 742.99 164.56"/>
        <path class="cls-1" d="M51.93,80.93l.1,83.82-33.76.07v-83.86l-18.27-.13v-28.76l18.25-.16C16.4,27.17,24.42,4.16,49.99.67c11.29-1.54,22.41-.56,32.73,4.2l-4.26,28.11c-5.03-2.52-9.99-3.64-15.47-3.46-5.07.97-9.9,4.28-10.32,9.82l-.96,12.52,24.97.14.11,28.76-24.85.16h-.01Z"/>
        <path class="cls-1" d="M926.86,132.83l4.17,28.64c-19.94,9.09-47.44,8.04-55.62-12.38-2.43-6.08-3.29-12.46-3.64-19.28l-.03-127.95,33.94-.05.07,123.98c.28,5.42,3.33,9.68,9.05,10,3.8.21,7.78-1.19,12.05-2.96h.01Z"/>
        <path class="cls-1" d="M394.08,133.15l4.26,28.09c-17.1,8.8-43.95,8.15-53.32-7.7-3.84-6.49-5.05-13.7-5.9-21.49l.02-130.18h33.77l.07,124.18c.71,4.18,2.25,7.03,5.35,9.29,5.39.86,9.26.47,15.75-2.18h0Z"/>
        <polygon class="cls-1" points="613.57 164.71 580.04 164.8 580.04 51.98 613.57 51.9 613.57 164.71"/>
        <path class="cls-1" d="M965.34,1.66c22.15-2.65,40.79,13.28,43.17,34.01,2.38,20.73-12.86,40.43-34.13,42.91-20.78,2.43-39.93-12.42-42.74-33.21-2.84-20.99,11.6-41.07,33.7-43.72h0ZM964.4,12.84c-15.85,3.25-24.89,18.54-21.57,33.4,3.27,14.65,17.83,24.11,32.5,21.19,15.1-3.01,24.94-17.53,22-32.64s-16.96-25.23-32.93-21.95Z"/>
        <polygon class="cls-1" points="580.08 32.29 580.08 12.92 600.38 12.88 600.4 10.64 580.08 10.61 580.11 1.65 613.5 1.78 613.53 32.18 580.08 32.29"/>
        <path class="cls-1" d="M978,57.91l-6.93-9.56-6.73-.51-.07,10.11-7.68-.04V22.24l14.71.14c6.05.06,11.13,3.82,12.41,8.94,1.39,5.55-.24,11.25-5.14,14.37l8.88,12.23h-9.46.01ZM974.81,38.95c2.45-1.11,2.02-7.27-.12-7.86-3.54-.99-6.56-1.11-10.4-1.23l.03,10.53c3.61.03,7.17.07,10.49-1.44Z"/>
      </g>
    </g>
  </g>
</svg>